<svg width="24" height="24" viewBox="0 0 24 24" fill="none" xmlns="http://www.w3.org/2000/svg">
<path d="M19.1666 12.3333C19.1666 11.4142 18.4191 10.6667 17.4999 10.6667H16.6666V8.16667C16.6666 5.86917 14.7974 4 12.4999 4C10.2024 4 8.33325 5.86917 8.33325 8.16667V10.6667H7.49992C6.58075 10.6667 5.83325 11.4142 5.83325 12.3333V19C5.83325 19.9192 6.58075 20.6667 7.49992 20.6667H17.4999C18.4191 20.6667 19.1666 19.9192 19.1666 19V12.3333ZM9.99992 8.16667C9.99992 6.78833 11.1216 5.66667 12.4999 5.66667C13.8783 5.66667 14.9999 6.78833 14.9999 8.16667V10.6667H9.99992V8.16667Z" fill="rgba(0, 0, 0, 0.5)"/>
</svg>
